<?xml version="1.0" encoding="UTF-8" standalone="no"?>
<!-- Uploaded to: SVG Repo, www.svgrepo.com, Generator: SVG Repo Mixer Tools -->

<svg
   height="800px"
   width="800px"
   version="1.1"
   id="_x32_"
   viewBox="0 0 512 512"
   xml:space="preserve"
   sodipodi:docname="wolf.svg"
   inkscape:version="1.2.2 (b0a84865, 2022-12-01)"
   xmlns:inkscape="http://www.inkscape.org/namespaces/inkscape"
   xmlns:sodipodi="http://sodipodi.sourceforge.net/DTD/sodipodi-0.dtd"
   xmlns="http://www.w3.org/2000/svg"
   xmlns:svg="http://www.w3.org/2000/svg"><defs
   id="defs11">
	
</defs><sodipodi:namedview
   id="namedview9"
   pagecolor="#000000"
   bordercolor="#000000"
   borderopacity="0.25"
   inkscape:showpageshadow="false"
   inkscape:pageopacity="0"
   inkscape:pagecheckerboard="0"
   inkscape:deskcolor="#d1d1d1"
   showgrid="false"
   inkscape:zoom="6.8178352"
   inkscape:cx="483.29123"
   inkscape:cy="491.79833"
   inkscape:window-width="1512"
   inkscape:window-height="916"
   inkscape:window-x="559"
   inkscape:window-y="1478"
   inkscape:window-maximized="1"
   inkscape:current-layer="_x32_" />
<style
   type="text/css"
   id="style2">
	.st0{fill:#000000;}
</style>
<path
   class="st0"
   d="m 483.009,360.176 c -1.424,-13.064 -3.35,-25.629 -5.698,-37.614 -5.947,-30.987 -14.822,-58.301 -23.956,-81.165 -19.686,-48.919 -41.045,-77.566 -41.045,-77.566 0,0 9.886,-14.242 12.484,-67.52 0.248,-3.682 0.331,-7.453 0.417,-11.478 1.088,-43.307 -15.412,-71.954 -28.398,-81.337 -5.861,-4.352 -10.973,-4.688 -13.404,-0.753 -3.096,4.778 -14.238,21.195 -27.138,39.789 -1.174,1.596 -2.348,3.273 -3.518,5.031 -21.028,30.406 -45.07,64.748 -45.07,64.748 H 256 204.316 c 0,0 -24.042,-34.341 -45.069,-64.748 -1.17,-1.758 -2.344,-3.435 -3.517,-5.031 C 142.829,23.94 131.687,7.522 128.591,2.744 c -2.429,-3.935 -7.542,-3.599 -13.404,0.753 -12.986,9.383 -29.486,38.03 -28.398,81.337 0.086,4.025 0.168,7.796 0.417,11.478 2.597,53.278 12.483,67.52 12.483,67.52 0,0 -21.359,28.648 -41.045,77.566 -9.133,22.864 -18.009,50.178 -23.956,81.165 -2.347,11.984 -4.274,24.55 -5.697,37.614 -0.086,0.589 -0.086,1.26 -0.168,1.849 l 1.174,-0.09 0.667,-0.081 h 1.006 l 47.078,-2.928 -6.282,50.758 49.589,-7.706 8.377,36.272 36.309,-19.142 c 11.607,31.143 26.868,70.678 33.257,81.075 10.938,17.85 35.02,12.754 52.534,2.561 1.297,-0.761 2.376,-1.448 3.346,-2.103 0.969,0.654 2.041,1.342 3.354,2.103 17.51,10.193 41.585,15.289 52.526,-2.561 6.389,-10.406 21.743,-49.974 33.424,-81.116 l 36.386,19.184 8.377,-36.272 49.589,7.706 -6.283,-50.758 47.078,2.928 h 1.007 l 0.666,0.081 1.174,0.09 c -0.082,-0.591 -0.082,-1.262 -0.167,-1.851 z M 128.845,146.056 c -12.823,-14.814 -18.21,-50.93 -13.866,-67.839 2.724,-10.66 13.182,-15.068 19.727,-7.542 6.56,7.534 29.568,49.638 29.568,49.638 0,0 -32.202,24.132 -35.429,25.743 z m 39.2,183.33 c 0,0 -13.96,-29.318 -16.753,-40.484 34.901,0 48.865,19.543 54.448,25.13 l 8.376,18.152 z m 115.593,126.68 c -10.671,13.596 -20.635,14.022 -27.642,14.022 -7.006,0 -16.962,-0.426 -27.646,-14.022 -8.561,-10.888 -1.559,-24.14 9.35,-24.14 3.89,0 18.295,0 18.295,0 0,0 14.414,0 18.303,0 10.914,0 17.92,13.252 9.34,24.14 z m 60.317,-126.68 -46.072,2.798 8.377,-18.152 c 5.583,-5.587 19.547,-25.13 54.448,-25.13 -2.793,11.165 -16.753,40.484 -16.753,40.484 z m 39.188,-183.33 c -3.223,-1.611 -35.42,-25.743 -35.42,-25.743 0,0 23.003,-42.104 29.555,-49.638 6.548,-7.526 17.003,-3.117 19.739,7.542 4.348,16.909 -1.052,53.024 -13.874,67.839 z"
   id="path4"
   style="fill:#2e3440;fill-opacity:1" />
<path
   style="fill:#d35f5f;stroke:#d35f5f;stroke-width:0.96;stroke-linecap:round;stroke-opacity:1"
   d="m 168.045,329.386 c -6.8857,-13.40428 -16.27087,-37.03407 -16.753,-40.484 8.25602,-0.0246 17.18487,0.68918 30.47542,6.18938 10.06562,4.56632 17.39484,11.43705 23.97258,18.94062 l 8.376,18.152 z"
   id="path2355"
   sodipodi:nodetypes="cccccc" /><path
   style="fill:#d35f5f;stroke:#d35f5f;stroke-width:0.96;stroke-linecap:round;stroke-opacity:1"
   d="m 343.955,329.386 c 8.3765,-16.88897 15.26296,-34.23463 16.753,-40.484 -25.39485,0.19627 -42.08285,8.93482 -54.448,25.13 l -8.377,18.152 z"
   id="path2507"
   sodipodi:nodetypes="ccccc" /><path
   style="fill:#ff0000;stroke:none;stroke-width:0.96;stroke-linecap:round"
   d="m 352.3315,309.144 c 0,0 -10.80255,-3.30923 0,0 z"
   id="path2509" /><path
   style="fill:none;fill-opacity:1;stroke:#d38d5f;stroke-width:9.6;stroke-linecap:round;stroke-dasharray:none"
   d="M 447.35963,239.24997 389.49432,239.36703 373.69144,256 h -50.66215"
   id="path3567"
   sodipodi:nodetypes="cccc" /><circle
   style="fill:none;fill-opacity:1;stroke:#d38d5f;stroke-width:9.6;stroke-linecap:butt;stroke-dasharray:none"
   id="path3623"
   cx="314.86172"
   cy="256"
   r="8.1675634" /><circle
   style="fill:none;fill-opacity:1;stroke:#d38d5f;stroke-width:9.6;stroke-linecap:butt;stroke-dasharray:none"
   id="path3623-9"
   cx="318.18369"
   cy="209.76556"
   r="8.1675634" /><path
   style="fill:none;fill-opacity:1;stroke:#d38d5f;stroke-width:9.6;stroke-linecap:round;stroke-dasharray:none"
   d="m 431.75147,205.96032 -34.25859,0 -18.31977,-18.31977 h -34.61353 l -19.32229,16.85951"
   id="path3625"
   sodipodi:nodetypes="ccccc" /><path
   style="fill:none;fill-opacity:1;stroke:#d38d5f;stroke-width:9.6;stroke-linecap:round;stroke-dasharray:none"
   d="m 69.894875,228.24163 23.253696,26.39813 h 35.344679 l 29.23862,-31.80981 h 37.89118"
   id="path3649"
   sodipodi:nodetypes="ccccc" /><circle
   style="fill:none;fill-opacity:1;stroke:#d38d5f;stroke-width:9.6;stroke-linecap:butt;stroke-dasharray:none"
   id="path3623-4"
   cx="203.79062"
   cy="222.82996"
   r="8.1675634" /></svg>
